#!OML:ASF F:\twosubjects\two\wednesday\Session 1\rory1.ASF
:FULLY-SPECIFIED
:DEGREES
1245
root 8.6001 18.87 9.45569 -175.398 3.06734 179.011
lowerback -0.829586 0.742799 -5.20318
upperback -0.967829 1.0327 0.168349
thorax -0.625006 0.560337 3.09196
lowerneck -10.4001 -6.36156 -7.11087
upperneck 13.9602 -8.81321 10.5572
head 6.75966 -3.66125 3.7574
rclavicle -2.7395e-015 -3.67752e-015
rhumerus -18.5221 25.0949 -95.4247
rradius 114.901
rwrist -11.5698
rhand -38.8516 59.4667
rfingers 7.12502
rthumb -11.8606 29.8227
lclavicle -2.7395e-015 -3.67752e-015
lhumerus -15.4376 -30.4624 94.9907
lradius 118.255
lwrist 29.8738
lhand -33.9319 21.0072
lfingers 7.12502
lthumb -7.11381 50.8677
rfemur 0.402059 14.8841 14.269
rtibia 9.2003
rfoot -6.70786 -19.372
rtoes 3.26107
lfemur 2.64016 -8.18714 -18.0819
ltibia 4.71303
lfoot -11.6132 13.5711
ltoes -9.70391
1246
root 8.60037 18.8711 9.45548 -175.389 3.00554 178.954
lowerback -0.970239 0.781315 -5.20211
upperback -0.898869 1.09495 0.0737413
thorax -0.47885 0.58632 2.99676
lowerneck -10.3991 -6.45339 -7.10185
upperneck 13.9117 -8.96394 10.7679
head 6.76854 -3.7133 3.80866
rclavicle 1.44429e-014 -6.95746e-015
rhumerus -19.0223 27.1834 -96.677
rradius 114.267
rwrist -7.41257
rhand -43.5515 55.8085
rfingers 7.12502
rthumb -16.3894 26.4809
lclavicle 1.44429e-014 -6.95746e-015
lhumerus -15.8471 -32.444 95.8126
lradius 118.05
lwrist 30.0587
lhand -34.6596 21.1044
lfingers 7.12502
lthumb -7.81619 50.9399
rfemur 0.304736 14.817 14.2124
rtibia 9.39559
rfoot -6.81914 -19.3698
rtoes 2.8293
lfemur 2.85147 -8.25322 -18.1284
ltibia 4.2328
lfoot -11.3664 13.7072
ltoes -9.59066
1247
root 8.60171 18.8698 9.45753 -175.385 2.91739 178.984
lowerback -1.058 0.791387 -5.1223
upperback -0.839167 1.1148 0.00604569
thorax -0.366916 0.591655 2.88437
lowerneck -10.4359 -6.56281 -6.93523
upperneck 13.8617 -9.1504 10.9023
head 6.7763 -3.7785 3.80437
rclavicle 1.46604e-014 -1.39149e-015
rhumerus -19.129 28.2278 -97.5937
rradius 114.353
rwrist -9.66423
rhand -39.93 56.4689
rfingers 7.12502
rthumb -12.9003 26.8876
lclavicle 1.46604e-014 -1.39149e-015
lhumerus -16.0405 -34.4621 96.6584
lradius 117.528
lwrist 29.1205
lhand -31.565 21.2938
lfingers 7.12502
lthumb -4.82867 51.2188
rfemur 0.277886 14.7317 14.2587
rtibia 9.47075
rfoot -6.78671 -19.3371
rtoes 2.26526
lfemur 2.96617 -8.33869 -18.073
ltibia 3.95652
lfoot -11.3054 13.8127
ltoes -10.8152
1248
root 8.60161 18.865 9.45952 -175.381 2.85757 178.809
lowerback -1.12739 0.74577 -5.32282
upperback -0.782766 1.06257 -0.0414417
thorax -0.268293 0.563184 2.94938
lowerneck -10.5409 -6.67547 -7.05003
upperneck 13.9617 -9.32857 11.2094
head 6.86543 -3.83282 3.90231
rclavicle -9.8212e-015 1.25234e-014
rhumerus -19.1859 29.8778 -98.4447
rradius 113.979
rwrist -10.7654
rhand -38.0803 56.2595
rfingers 7.12502
rthumb -11.1168 26.574
lclavicle -9.8212e-015 1.25234e-014
lhumerus -16.3726 -36.4436 97.7589
lradius 116.844
lwrist 28.2233
lhand -30.8248 21.9379
lfingers 7.12502
lthumb -4.11398 51.8779
rfemur 0.2663 14.6571 14.061
rtibia 9.49779
rfoot -6.77684 -19.2999
rtoes 1.78919
lfemur 3.02953 -8.41209 -18.2655
ltibia 3.81654
lfoot -11.3065 13.7064
ltoes -10.6763
1249
root 8.59992 18.8606 9.46223 -175.357 2.81387 178.638
lowerback -1.15684 0.708885 -5.50308
upperback -0.764486 1.01918 -0.0889561
thorax -0.231443 0.541508 3.00189
lowerneck -10.7809 -6.80366 -7.33737
upperneck 14.3032 -9.51927 11.5691
head 7.06928 -3.88411 4.04267
rclavicle 4.28008e-015 2.5842e-015
rhumerus -19.1202 31.8978 -99.1185
rradius 112.873
rwrist -10.9158
rhand -37.9579 57.7257
rfingers 7.12502
rthumb -10.9987 28.0338
lclavicle 4.28008e-015 2.5842e-015
lhumerus -17.243 -38.8784 99.2577
lradius 116.573
lwrist 27.718
lhand -31.8676 24.0952
lfingers 7.12502
lthumb -5.12093 54.0134
rfemur 0.23035 14.5967 13.8569
rtibia 9.50321
rfoot -6.86346 -19.3172
rtoes 1.93222
lfemur 3.01439 -8.46854 -18.4597
ltibia 3.75139
lfoot -11.1883 13.6537
ltoes -9.19692
1250
root 8.59969 18.8611 9.46597 -175.351 2.74793 178.667
lowerback -1.10516 0.676378 -5.42896
upperback -0.812414 0.971863 -0.137241
thorax -0.303136 0.520923 2.90909
lowerneck -10.902 -6.88517 -7.43691
upperneck 14.6307 -9.65522 11.7813
head 7.22671 -3.91357 4.11371
rclavicle 6.62201e-015 -4.96962e-015
rhumerus -19.4041 33.9736 -99.9592
rradius 111.825
rwrist -10.7011
rhand -38.2989 59.1008
rfingers 7.12502
rthumb -11.3276 29.4267
lclavicle 6.62201e-015 -4.96962e-015
lhumerus -18.1937 -41.4193 100.729
lradius 116.154
lwrist 28.8178
lhand -34.1723 23.3952
lfingers 7.12502
lthumb -7.34584 53.2477
rfemur 0.320855 14.5333 13.8805
rtibia 9.32382
rfoot -7.06994 -19.2794
rtoes 3.30595
lfemur 2.75624 -8.53138 -18.4165
ltibia 4.1663
lfoot -11.2985 13.7997
ltoes -9.835
1251
root 8.60018 18.8615 9.46736 -175.382 2.6733 178.627
lowerback -1.0744 0.640699 -5.40793
upperback -0.85807 0.923515 -0.225154
thorax -0.361042 0.500044 2.80566
lowerneck -10.7842 -6.93533 -7.44922
upperneck 14.7719 -9.74607 11.914
head 7.26878 -3.93824 4.15424
rclavicle -3.27995e-015 -1.49089e-014
rhumerus -19.6748 35.7534 -100.817
rradius 111.203
rwrist -11.1843
rhand -37.8904 57.4253
rfingers 7.12502
rthumb -10.9335 27.73
lclavicle -3.27995e-015 -1.49089e-014
lhumerus -18.3786 -42.8813 101.461
lradius 115.073
lwrist 27.6688
lhand -33.0236 23.5976
lfingers 7.12502
lthumb -6.237 53.4857
rfemur 0.570079 14.4592 13.8299
rtibia 8.95212
rfoot -7.03261 -19.2054
rtoes 4.47481
lfemur 2.37878 -8.60919 -18.446
ltibia 4.93151
lfoot -11.6596 13.8539
ltoes -11.2455
1252
root 8.6013 18.8547 9.4663 -175.404 2.60936 178.519
lowerback -1.16608 0.59526 -5.48459
upperback -0.790695 0.872739 -0.280907
thorax -0.236036 0.470703 2.79274
lowerneck -10.7643 -7.01252 -7.33243
upperneck 14.7897 -9.8721 11.9267
head 7.2792 -3.98767 4.12552
rclavicle -4.75841e-015 -2.0276e-014
rhumerus -19.4516 37.0244 -101.406
rradius 110.604
rwrist -11.8649
rhand -38.7444 62.2395
rfingers 7.12502
rthumb -11.7572 32.5895
lclavicle -4.75841e-015 -2.0276e-014
lhumerus -18.8418 -44.258 102.592
lradius 114.67
lwrist 27.6024
lhand -35.2297 30.3641
lfingers 7.12502
lthumb -8.36641 60.1784
rfemur 0.822606 14.3891 13.732
rtibia 8.55805
rfoot -6.4836 -19.2818
rtoes 2.89194
lfemur 2.08707 -8.68165 -18.5612
ltibia 5.56126
lfoot -11.9197 13.6557
ltoes -10.4006
1253
root 8.60079 18.8486 9.46435 -175.399 2.54421 178.504
lowerback -1.30752 0.574193 -5.46523
upperback -0.665784 0.856842 -0.308204
thorax -0.0259601 0.454213 2.75655
lowerneck -10.9629 -7.15609 -7.21076
upperneck 14.7525 -10.0832 11.9069
head 7.31748 -4.07874 4.06827
rclavicle -1.47225e-014 1.43125e-014
rhumerus -19.2196 37.1561 -101.82
rradius 110.586
rwrist -13.289
rhand -40.3155 70.26
rfingers 7.12502
rthumb -13.2719 40.7026
lclavicle -1.47225e-014 1.43125e-014
lhumerus -19.0467 -43.6556 103.35
lradius 115.405
lwrist 31.7063
lhand -37.5981 27.042
lfingers 7.12502
lthumb -10.6516 56.752
rfemur 1.00406 14.3226 13.7345
rtibia 8.24227
rfoot -6.15192 -19.3195
rtoes 1.95742
lfemur 1.8657 -8.74733 -18.5726
ltibia 5.9794
lfoot -12.1469 13.4483
ltoes -9.25435
1254
root 8.59814 18.8516 9.46484 -175.427 2.40731 178.515
lowerback -1.30631 0.551986 -5.40206
upperback -0.558129 0.828908 -0.340161
thorax 0.0880441 0.434494 2.68883
lowerneck -11.294 -7.30763 -7.23475
upperneck 14.8632 -10.3115 12.0621
head 7.44684 -4.15776 4.08818
rclavicle -1.6201e-014 -1.39149e-015
rhumerus -19.3911 36.4317 -102.192
rradius 110.551
rwrist -13.7756
rhand -39.7083 74.4348
rfingers 7.12502
rthumb -12.6866 44.8401
lclavicle -1.6201e-014 -1.39149e-015
lhumerus -19.1146 -42.5967 103.632
lradius 116.388
lwrist 33.3112
lhand -35.5189 25.85
lfingers 7.12502
lthumb -8.64555 55.653
rfemur 1.19366 14.191 13.7454
rtibia 8.00434
rfoot -6.51432 -19.1581
rtoes 4.13928
lfemur 1.7109 -8.88327 -18.5434
ltibia 6.27866
lfoot -12.4024 13.4184
ltoes -9.75366
1255
root 8.5973 18.852 9.46796 -175.478 2.30059 178.508
lowerback -1.21445 0.523516 -5.38777
upperback -0.466884 0.7868 -0.356531
thorax 0.134464 0.40996 2.6631
lowerneck -11.7305 -7.38577 -7.40126
upperneck 15.0929 -10.4298 12.2792
head 7.6343 -4.17873 4.16324
rclavicle -8.19987e-016 -5.56597e-015
rhumerus -19.584 35.6554 -102.427
rradius 111.453
rwrist -13.6355
rhand -38.9376 68.1169
rfingers 7.12502
rthumb -11.9435 38.4776
lclavicle -8.19987e-016 -5.56597e-015
lhumerus -20.1979 -40.5516 104.468
lradius 117.079
lwrist 32.5036
lhand -31.0535 26.1954
lfingers 7.12502
lthumb -4.33483 56.131
rfemur 1.30572 14.0904 13.747
rtibia 7.92409
rfoot -6.82656 -19.047
rtoes 5.96315
lfemur 1.72276 -8.99125 -18.5397
ltibia 6.3363
lfoot -12.4434 13.4626
ltoes -10.6832
1256
root 8.59793 18.8429 9.47008 -175.471 2.32251 178.43
lowerback -1.18047 0.543441 -5.49083
upperback -0.4499 0.814216 -0.389921
thorax 0.129589 0.424057 2.68643
lowerneck -11.8383 -7.47935 -7.54566
upperneck 15.0668 -10.5658 12.5162
head 7.68237 -4.22556 4.24618
rclavicle -2.29845e-015 -4.57205e-015
rhumerus -19.8283 34.5681 -102.674
rradius 111.927
rwrist -13.6651
rhand -35.1823 62.9358
rfingers 7.12502
rthumb -8.32072 33.1196
lclavicle -2.29845e-015 -4.57205e-015
lhumerus -20.6802 -39.8951 104.628
lradius 117.322
lwrist 30.3387
lhand -29.0783 25.7254
lfingers 7.12502
lthumb -2.42735 55.6914
rfemur 1.25862 14.1048 13.6684
rtibia 7.99281
rfoot -6.65388 -19.1328
rtoes 4.45408
lfemur 1.79764 -8.97558 -18.63
ltibia 6.19447
lfoot -12.3674 13.4378
ltoes -10.4032
1257
root 8.59666 18.8379 9.47432 -175.39 2.24055 178.313
lowerback -1.17752 0.521517 -5.60526
upperback -0.483687 0.787662 -0.437341
thorax 0.0946448 0.413588 2.70112
lowerneck -11.6898 -7.55006 -7.65538
upperneck 14.9009 -10.6715 12.7593
head 7.63457 -4.26895 4.33527
rclavicle 1.2424e-015 -3.57812e-015
rhumerus -19.9377 33.5372 -102.777
rradius 112.336
rwrist -13.8356
rhand -32.362 62.7927
rfingers 7.12502
rthumb -5.59823 32.8867
lclavicle 1.2424e-015 -3.57812e-015
lhumerus -20.8892 -40.0117 104.624
lradius 116.685
lwrist 27.3294
lhand -31.4253 22.6141
lfingers 7.12502
lthumb -4.69383 52.5421
rfemur 1.15603 14.0049 13.5215
rtibia 8.03791
rfoot -6.50683 -19.1911
rtoes 2.1679
lfemur 1.70053 -9.0647 -18.7361
ltibia 6.13473
lfoot -12.4316 13.3981
ltoes -9.68753
1258
root 8.59522 18.8449 9.48071 -175.375 1.99352 178.417
lowerback -1.04264 0.462272 -5.45053
upperback -0.520328 0.69616 -0.438926
thorax -0.00875321 0.370732 2.61028
lowerneck -11.4283 -7.57057 -7.64978
upperneck 14.6974 -10.7105 12.9028
head 7.53464 -4.28878 4.38333
rclavicle 2.8948e-015 -8.94531e-015
rhumerus -19.441 32.7811 -102.122
rradius 112.809
rwrist -14.6274
rhand -29.2782 60.9968
rfingers 7.12502
rthumb -2.62041 31.0331
lclavicle 2.8948e-015 -8.94531e-015
lhumerus -20.8258 -39.6302 104.37
lradius 117.118
lwrist 28.6549
lhand -32.0579 22.1608
lfingers 7.12502
lthumb -5.30461 52.0744
rfemur 1.26039 13.7672 13.6433
rtibia 7.85812
rfoot -6.59243 -19.0628
rtoes 3.52112
lfemur 1.47908 -9.30161 -18.5829
ltibia 6.40735
lfoot -12.4192 13.3705
ltoes -10.5093
1259
root 8.59558 18.8506 9.48541 -175.43 1.78936 178.529
lowerback -0.832859 0.435494 -5.27926
upperback -0.565642 0.643272 -0.449104
thorax -0.166462 0.348416 2.50116
lowerneck -11.1355 -7.63599 -7.69246
upperneck 14.4064 -10.8137 13.1671
head 7.41873 -4.33478 4.47202
rclavicle -1.86361e-015 9.54166e-015
rhumerus -19.2827 32.5383 -101.602
rradius 113.002
rwrist -15.2066
rhand -27.4349 60.4145
rfingers 7.12502
rthumb -0.840092 30.4364
lclavicle -1.86361e-015 9.54166e-015
lhumerus -20.7423 -39.5716 104.102
lradius 117.802
lwrist 29.5141
lhand -32.3173 23.8394
lfingers 7.12502
lthumb -5.55512 53.7466
rfemur 1.49187 13.5802 13.8065
rtibia 7.58977
rfoot -6.58862 -18.9179
rtoes 5.88788
lfemur 1.27573 -9.49675 -18.4343
ltibia 6.80751
lfoot -12.3011 13.3019
ltoes -11.375
